<?xml version="1.0" encoding="UTF-8"?>
<svg width="210mm" height="210mm" version="1.1" viewBox="0 0 210 210" xmlns="http://www.w3.org/2000/svg">
 <g transform="translate(9.0278 2.6728)">
  <g transform="matrix(1.0945 0 0 1.0945 -7.1484 -46.845)" stroke-width=".35278">
   <path d="m158.89 131.28-0.0871-56.355-112.71-0.18072 56.367-0.08711c44.834-0.06928 56.402 0.0031 56.535 0.35386 0.0923 0.24253 0.12646 25.682 0.076 56.533l-0.0917 56.092z" fill="#d8f7fd"/>
   <path d="m45.037 214.01c76.225-0.24041 129.56-0.24135 129.41-2e-3 -0.0899 0.14552-35.674 0.22584-79.077 0.17849-43.402-0.0475-66.054-0.1268-50.338-0.17637zm74.652-43.812-38.942-17.22-34.431-77.876 56.127-0.08928c30.87-0.0491 56.181-0.03539 56.247 0.03048 0.0659 0.06587 0.0796 25.377 0.0305 56.247l-0.0893 56.128z" fill="#bcf3fd"/>
   <path d="m16.285 134.89c0-43.527 0.08076-79.059 0.17948-78.96 0.23165 0.23165 0.22704 157.69-0.0046 157.93-0.09617 0.0962-0.17485-35.438-0.17485-78.965z" fill="#79d8f6"/>
   <path d="m16.638 135.25c0-43.143 0.06819-78.374 0.15153-78.29 0.08334 0.08334 10.49 24.914 23.125 55.18 12.635 30.266 23.05 55.196 23.143 55.401 0.09339 0.20486-7.5744 7.9803-17.04 17.279-9.4652 9.2984-19.948 19.599-23.295 22.889l-6.0854 5.983z" fill="#00b7f1"/>
   <path d="m24.628 205.87c4.4917-4.404 15.075-14.801 23.519-23.104l15.352-15.096 55.151 22.984c30.333 12.641 55.217 23.046 55.298 23.122 0.0808 0.0761-35.32 0.13014-78.669 0.12005l-78.816-0.0183z" fill="#0094d0"/>
  </g>
 </g>
</svg>
