<?xml version="1.0" standalone="no"?>
<!DOCTYPE svg PUBLIC "-//W3C//DTD SVG 20010904//EN"
 "http://www.w3.org/TR/2001/REC-SVG-20010904/DTD/svg10.dtd">
<svg version="1.0" xmlns="http://www.w3.org/2000/svg"
 width="131.000000pt" height="131.000000pt" viewBox="0 0 131.000000 131.000000"
 preserveAspectRatio="xMidYMid meet">
<metadata>
Created by potrace 1.11, written by Peter Selinger 2001-2013
</metadata>
<g transform="translate(0.000000,131.000000) scale(0.100000,-0.100000)"
fill="#000000" stroke="none">
<path d="M793 1293 c-7 -2 -42 -42 -78 -89 l-66 -84 -149 0 c-140 0 -150 -1
-174 -22 -13 -13 -83 -99 -155 -192 -157 -202 -156 -201 -78 -303 176 -232
234 -303 252 -310 11 -4 76 -8 145 -8 104 -1 125 -4 128 -16 2 -9 -35 -65 -81
-126 -47 -60 -80 -111 -73 -112 16 -2 266 -1 297 2 19 1 25 7 21 20 -4 15 7
22 30 18 4 0 5 8 3 19 -2 12 0 18 6 15 5 -4 9 -1 9 5 0 6 4 8 10 5 6 -3 7 1 4
9 -4 10 -1 16 9 16 9 0 19 5 23 12 4 7 3 8 -4 4 -19 -12 -14 3 9 27 12 12 18
15 14 7 -8 -13 -7 -13 8 -1 18 15 23 26 7 16 -5 -3 -10 -1 -10 4 0 6 5 11 10
11 6 0 10 7 10 16 0 8 5 12 11 9 6 -4 9 0 7 8 -2 9 0 15 3 14 3 -1 12 3 20 8
8 7 70 10 151 10 156 -1 159 0 93 80 -19 24 -35 47 -35 51 0 4 -6 12 -14 18
-26 21 -186 238 -186 253 0 8 5 11 13 7 10 -6 10 -4 0 7 -16 16 -17 33 -2 24
6 -4 10 -1 8 6 -3 26 1 40 10 35 5 -3 11 3 14 14 3 11 11 19 19 18 7 -2 12 3
10 11 -3 16 17 43 28 36 5 -3 12 0 16 6 4 8 3 9 -4 5 -22 -13 -12 13 10 28 12
9 18 16 13 16 -6 0 4 10 20 21 18 12 22 18 10 14 -20 -6 -20 -6 0 13 11 11 22
18 25 17 3 -2 14 9 24 24 19 26 19 26 0 11 -13 -10 -12 -8 2 6 13 12 21 24 20
25 -2 2 6 13 17 24 11 11 16 13 12 5 -5 -8 -4 -11 0 -7 14 12 15 40 3 54 -7 9
-48 13 -144 13 l-134 0 23 23 c12 12 25 21 28 20 4 -1 6 5 5 15 0 9 5 16 11
15 7 -2 12 0 12 5 -4 21 2 32 13 26 8 -5 9 -2 5 10 -4 9 -3 15 1 13 9 -6 26
14 30 36 3 16 -9 17 -140 16 -79 0 -149 -3 -155 -6z"/>
</g>
</svg>
